<svg width="115" height="90" viewBox="0 0 115 90" fill="none" xmlns="http://www.w3.org/2000/svg">
<path d="M57.3563 73.2656L80.5 50.625L57.3563 27.9844L49.3062 35.8594L58.65 45H34.5V56.25H58.65L49.3062 65.3906L57.3563 73.2656ZM11.5 90C8.33751 90 5.62926 88.8975 3.37526 86.6925C1.12126 84.4875 -0.00382357 81.84 9.76231e-06 78.75V11.25C9.76231e-06 8.15626 1.12701 5.50688 3.38101 3.30188C5.63501 1.09688 8.34134 -0.00374045 11.5 9.55009e-06H46L57.5 11.25H103.5C106.662 11.25 109.371 12.3525 111.625 14.5575C113.879 16.7625 115.004 19.41 115 22.5V78.75C115 81.8437 113.873 84.4931 111.619 86.6981C109.365 88.9031 106.659 90.0037 103.5 90H11.5Z" fill="#C1C1C1"/>
</svg>
