<svg width="84" height="86" viewBox="0 0 84 86" fill="none" xmlns="http://www.w3.org/2000/svg">
<ellipse cx="41.7006" cy="42.8131" rx="41.7006" ry="42.8131" fill="#D9D9D9"/>
<path d="M41.7001 43.1956C39.0148 43.1956 36.7161 42.1351 34.8038 40.014C32.8916 37.893 31.9355 35.3433 31.9355 32.3649C31.9355 29.3864 32.8916 26.8367 34.8038 24.7157C36.7161 22.5947 39.0148 21.5342 41.7001 21.5342C44.3854 21.5342 46.6841 22.5947 48.5963 24.7157C50.5086 26.8367 51.4647 29.3864 51.4647 32.3649C51.4647 35.3433 50.5086 37.893 48.5963 40.014C46.6841 42.1351 44.3854 43.1956 41.7001 43.1956ZM22.1709 64.857V57.2755C22.1709 55.7411 22.5273 54.3304 23.2401 53.0434C23.9513 51.7581 24.8968 50.7771 26.0767 50.1001C28.5993 48.7012 31.1625 47.6515 33.7664 46.9511C36.3702 46.2525 39.0148 45.9032 41.7001 45.9032C44.3854 45.9032 47.0299 46.2525 49.6338 46.9511C52.2377 47.6515 54.8009 48.7012 57.3234 50.1001C58.5033 50.7771 59.4489 51.7581 60.1601 53.0434C60.8729 54.3304 61.2293 55.7411 61.2293 57.2755V64.857H22.1709Z" fill="black"/>
</svg>
